# xmcd
#
# Track frame offsets: 
#        150
#        22445
#        41488
#        63768
#        81366
#        101883
#        121654
#        142028
#        158815
#        182745
#        202280
#        223732
#
# Disc length: 3148 seconds
#
# Revision: 0
# Processed by: cddbd v1.5.2PL0 Copyright (c) Steve Scherf et al.
# Submitted via: ExactAudioCopyFreeDBPlugin 1.0
#
DISCID=b60c4a0c
DTITLE=明天  林建欽 - 明歌知欽 =Hugh and Paul
DYEAR=2016
DGENRE=Blues
TTITLE0=等得太久
TTITLE1=雨港的晚上
TTITLE2=感情的段落
TTITLE3=愛情的代價
TTITLE4=光明同行
TTITLE5=明日之歌
TTITLE6=我有我天地
TTITLE7=含羞草 
TTITLE8=愛的版圖
TTITLE9=薔薇之戀
TTITLE10=只想你會意 
TTITLE11=愛的開始 
EXTD=\n熱愛音樂，唱出真善美；快樂行善，分享人間愛 \n無暇清澈的聲音 扣人心弦的樂曲 \n完美絕配的組合 \n港澳傳媒譽為:香港好聲
EXTD=音” \n\n
EXTT0=
EXTT1=
EXTT2=
EXTT3=
EXTT4=
EXTT5=
EXTT6=
EXTT7=
EXTT8=
EXTT9=
EXTT10=
EXTT11=
PLAYORDER=
